<svg xmlns="http://www.w3.org/2000/svg" width="238.11" height="332.6" viewBox="0 0 63 88"><g style="stroke-width:.99617" transform="rotate(180 208.694653 39.70386)scale(.282222)"><rect width="223.23" height="311.81" x="1255.71" y="-30.44" rx="10.63" ry="10.63" style="display:inline;fill:#fff;fill-opacity:1;stroke:none;stroke-width:.996734;stroke-miterlimit:4;stroke-dasharray:none;stroke-opacity:1"/><path d="M1272.93 39.53c-2.16-3.57-4.44-7.04-7.28-10 2.84-2.96 5.12-6.43 7.28-10 2.16 3.57 4.43 7.04 7.27 10-2.84 2.96-5.11 6.43-7.27 10m146.17 10.72c-5.2-8.56-10.65-16.89-17.47-24 6.82-7.11 12.27-15.44 17.46-24 5.19 8.56 10.64 16.89 17.46 24-6.82 7.11-12.27 15.44-17.46 24m42.63 181.15c-2.16-3.58-4.43-7.04-7.27-10 2.84-2.97 5.11-6.44 7.27-10 2.16 3.56 4.44 7.03 7.28 10-2.84 2.96-5.12 6.42-7.28 10M1315.56 50.25c-5.19-8.56-10.64-16.89-17.46-24 6.82-7.11 12.27-15.44 17.46-24 5.18 8.56 10.64 16.89 17.46 24-6.82 7.11-12.28 15.44-17.46 24m0 198.43c-5.19-8.57-10.64-16.9-17.46-24 6.82-7.11 12.27-15.44 17.46-24 5.18 8.56 10.64 16.89 17.46 24-6.82 7.1-12.28 15.43-17.46 24m103.54 0c-5.2-8.56-10.65-16.89-17.47-24 6.82-7.1 12.27-15.43 17.46-24 5.19 8.57 10.64 16.9 17.46 24-6.82 7.11-12.27 15.44-17.46 24" style="display:inline;opacity:1;fill:#d40000;stroke-width:.99617"/><path d="M1273.16 16.39v-2.92h2.63v-4.8h-13.16v-3.4l14.24-21.88 2.32.01V5.27h4.03v3.4h-4.03l-.07 4.8h2.2v2.92zm2.63-24.99-9.04 13.87h9.04zm185.7 243.13v2.92h-2.63v4.8h13.16v3.4l-14.24 21.88-2.33-.01v-21.87h-4.02v-3.4h4.02l.08-4.8h-2.2v-2.92zm-2.63 24.99 9.04-13.87h-9.04zm0 0" style="opacity:1;fill:#d40000;fill-opacity:1;stroke-width:.99617"/></g></svg>