<svg xmlns="http://www.w3.org/2000/svg" width="238.11" height="332.6" viewBox="0 0 63 88"><g style="stroke-width:.99617" transform="translate(-1025.52135 8.59223)scale(.282222)"><rect width="223.23" height="311.81" x="3633.74" y="-30.44" rx="10.63" ry="10.63" style="display:inline;fill:#fff;fill-opacity:1;stroke:none;stroke-width:.996734;stroke-miterlimit:4;stroke-dasharray:none;stroke-opacity:1"/><path d="M1985.08 848.52v279.8h173.36c-.09-84.4.06-187.88 0-279.8zm48.91 2.34c30.59.02 59.54.04 91.06.19-2.82 6.72-10.5 18.83-15.3 28.56 1.16 2.99-.27 3.5.33 4.2.97 1.67.27 4-1.79 4.53-8.91.95-18.43-1.5-26.28-4.52-12.02-4.62-22.15-5.87-34.33-4.8 0 0-1-.1-1.46-2.47-4.01-12.37-8.41-17.54-12.23-25.69m-46.7.34h45.2s2.13 3.78 6.59 12.5c1.89 3.7 3.48 5.26 3.64 8.18-.17 1.72.62 3.67 2.02 4.45.47.26 1.25-.05 1 .68-.3.8.59 2.05.83 2.32.28.46.1.58.13 2.32.03 1.68.12 2.38.48 3.65.9 3.21 1.1 4.82.59 6.48a93 93 0 0 1-4.56 11.4c-1.06 2.3-.9 3.2 2.34 4.87 2.42 1.25 2.74 1.24 2.44 3.07-.15.85-.28 1.4-.1 1.8.1.26.51.61.75.82.31.27.22.83-.1 1.25-.32.4-.33 1 0 1.97 1.02 2.5-1.83 6.02-5.06 7.27-.92-3.32-5.62-4.48-8.35-2.34-2.39 1.87-2.77 4.04-2.14 6.93-5.8 3.52-12.12 7.65-18.35 10.77-.75-1.55-1-2.87-1.48-4.54-.41-1.42-.36-1.53-.2-4.31.14-2.52.21-3.1-.38-3.26-3.34-.37-4.1.82-4.74 2.99-.28.96-.81.76-1.14.36-1.27-2.33-2.88-4.75-3.94-6.41-1.32-2.11-3.54-3.17-4.7-2.17-.25.82-.45.85-1.93.51-1.79-.4-2.8.6-2.98 1.93-.07.53.31.5-.64 1.03-2.38 1.77-1.48 4.19-1.12 5.64-.03-.07-1.02.6-1.04 1.97-.11 7.08 5.98 17.28 5.85 17.02l-8.9 5.36zm139.58 0h28.94v5.25l-14.24 14.63v10.77c-7.63-1.93-10.78-10.54-11.4-16.5-14.14 13-13.8 32.55-.43 44.82 1.54-6.2 7.57-15.46 11.83-15.4v38.71l-8.49-8.57-17.3.14c2.96-3.4 1.37-11.1-.24-15.27-3.02-7.86-7.34-20.72-7.01-20.9 0 0 2.49-.65 2.71-2.24.34-2.36-.68-2.18.78-4.3.33-.49.12-1.39-.23-2.1-.23-.53-.45-1.33-.02-1.94zm29.9 5.78-.02 89.3c-1.05 7.25-.6 14.67-.65 21.98l-7.12 3.78-26.69-35.22s1.07-1.6 1.57-1.88c-.57-1.28-2.46 1.92-2.62 2.43a2481 2481 0 0 1 27.68 35.73l7.5-3.94c.03 7.25-.17 14.62-.23 21.8-13.1 7.58-20.9 19.83-26.5 32.37-5.2 1.7-10.65 4.12-15.87 6.3l7.51 11.34-2.97 1.62c-33.4-50.88-19.08-86.67 7.6-116.46l4.9-.09 11.46 10.72-.21-65.1c4.77-5 10.06-9.52 14.67-14.68m-27.47 10.88c.22.76.67 2.63.72 2.57-7.85 8.23-11.55 21.72-.18 35.54-.06-.05-.26 1-.57 2.18-12.22-12.02-10.41-30.86.03-40.3m1.18 3.44c2.04 6.06 7.04 9.84 7.04 9.84-1.88 4.21-3 8.6.52 14.16-3.28 2.98-6 6.26-7.5 10.17-11.02-12.87-7.49-26.3-.06-34.17m-73.61 7.91c5.2.03 11.18.62 15.11 2.14 1.61 12.16 10.14 30.2 9.05 34.87-2.19-3.31-11.34-2.43-8.58 6.83 0 0-.75 1.13-2.24 2.65-3.84 3.93-4.8 4.57-2.97 1.12 1.4-2.66 3.2-6.13 3.23-6.8.03-.53-.38-.66-.7-.23-.24.32-.53 1.09-.78 1.67-2.29 5.4-6.2 10.27-8.9 11.44-.7.3-.66-.02-.18-.61 3.18-3.98 5.6-7.66 7.33-12.46.07-.5-.62-.7-.85-.23-2.97 6.28-3.86 7.7-7.52 12.13-1.44 1.74-2.78 2.62-3.85 2.53-.92-.08-.65-.24.2-1.16.66-.7 1.62-1.67 3.19-3.65 2.75-3.49 5.52-9.17 4.5-8.87-.18-.47-1.04 1.03-1.78 2.47-2.01 3.4-4.15 7.9-8.93 10.86-1 .42-2.09.66-3.05.67-1.32 0-.55-.4 2.32-2.4 2.81-1.96 7.44-8.16 7.97-10.46.25-1.05-.41-1.13-1.15.3-3.4 6.6-9.86 12.63-15.76 12.36-2.89-.13-4.45-.92-2.06-1.26 6.56-.81 11.47-4.58 15.76-12.09 0-.17-.39-.16-.84.13-3.93 4.84-8.73 11.43-16.5 10.91a5.15 5.15 0 0 1-2.05-9.78c4.07-1.93 7.74 3.31 4.31 6-.65.56-1.7.23-1.7.23s.37.04 1.04-.5c2.5-2.03-.34-5.99-3.32-4.5-1.67.71-2.34 3.12-.87 4.94 3.27 4.04 10.32.96 15.24-5.57.51-.68.96-2.17.52-2.01-.76.31-1.22.92-1.67 1.6a15 15 0 0 1-5.48 4.99 7 7 0 0 1-1.84.68c.57-.42.77-1.39.89-2.3 0 0 .49-.49.92-.77 3.05-1.98 4.85-4.81 4.93-6.57.05-1.28-.88-2.96.13-3.3 3 1.48 7.5-.65 8.81-.92 1.37.57 1.34-.2-.18-1.51-1-.88-1.33-1.5-1.86-1.06a4.2 4.2 0 0 1-3.57 1.88c-.9.07-1.22.2-2.64-.25-1.65-.72-1.23-1.83-1.25-3.27.25-2.08-1.76-3.12-4.1-4.48-1.37-.8-.83-1.62.76-5.57.82-1.78 1.52-4.19 2.54-6 .95-2.04 1.03-4.27.42-6.81-1.14-4.72-1.95-7.12.07-7.54 1.96-.3 4.8-.48 7.92-.47m80.93 2.28c1.87 1.01 2.7 1.1 3.77 1.48v10.61c-1.43.26-2.6.86-3.39 1.17-3.63-4.5-2.17-11.08-.38-13.26m-64.46.12 1.83.55c1.83 11.75 7.38 22.69 9.16 33.48 1.88 8.26-7.87 12.85-11.14 5.74-.86-1.89.14-4.29 2.34-5.4 3.57-1.83 7.4 3.01 4.6 5.67-2.14 2.02-5.3.53-4.61-2.06.44-1.68 2.98-1.79 3.4-.09.1.57.39 1.13.6.82 1.3-3.1-3.1-4.55-4.94-1.67-1.08 2.32.98 5.3 4.03 4.73 4.17-.78 4.55-6.8 2.87-13.03-2.9-10.75-7.57-20.37-8.14-28.74m3.17 1.02 1.9.69c2.07 9.35 5.53 19 7.8 27.24 1.52 5.6 3.23 12-2.8 14.72l-1.74-.03s.52-.28 1.76-1.6c6.84-6.3-4.26-24.06-6.82-40.24zm-20.07.58c-3.06-.08-6.02.86-5.79 2.2.17.92.85 1.15 3.23.84 5.24-1.02 10.28 1.14 14.11 3.54 1.03.65 1.56 1.06 1.79 1.07.17 0 .26-.22.05-.5-2.92-3.68-8.46-7.01-13.39-7.15m23.52.5 1.95.78c1.78 9.85 6.16 20.06 8.27 28.92 1.24 5.2.89 8.49-1.98 11.32-.72.56-.9.62-.9.62h-1.73c4.37-3.7 3.4-9.18 1.78-14.74-2.98-10.27-7.9-26.86-7.39-26.9m3.38 1.33 1.76.76c1.81 8.5 2.26 8.7 6.63 22.32 1.31 4.1 2.52 7.7 2.28 11.11-.05 1.95-1.74 5.8-3.52 6.11l-1.08.01c4.17-4.77 2.32-11.29.5-16.73-3.3-10.12-4.91-15.46-6.57-23.58m3.16 1.15 2.15.77a337 337 0 0 0 7.17 24.05c.92 2.8 1.74 5.71 1.66 8.16-.44 3.27-1 4.16-2.93 6.1l-1.67.02s2.09-3.65 2.28-5.68c.37-3.98-.9-7.28-2.32-11.77-3.48-11-5.25-14.52-6.34-21.65m3.47 1.22 1.83.55c2.4 7.62 4.57 15.4 6.95 21.99 1.25 3.57 1.85 6.35 1.77 8.71-.26 3.27-1.2 4.63-2.61 6.45l-1.62.01a12 12 0 0 0 2.17-6.17c.03-2.72-.82-5.37-1.64-8.19-2.67-9.15-5.37-15.22-6.85-23.35m-35.47.9c-.45.1-.82.34-.73.81.05.3.56.55 1.1.4 4.98-1.5 9.3 1.86 13.19 3.83.2.15.42.22.58.21.2 0 .29-.14.03-.41-4.98-2.89-8.25-6.03-14.17-4.85m38.69-.04 1.95.4c2.41 7.44 4.88 15.38 7.4 22.22 1.53 4.17 2.13 11.3-1.3 14.38l-1.85-.05c1.33-1.68 2.12-4.3 2.19-6.64.07-2.76-.58-5.47-1.57-8.28a270 270 0 0 1-6.82-22.03m3.47.64 1.83.25c1.38 7.79 4.99 15.12 7.07 21.7 1.07 3.07 1.82 6.86 1.43 9.75-.27 2.04-2.3 4.72-2.68 4.76h-.03l-1.23-.02c.05-.03 1.84-3.9 1.97-6.25.15-2.66-.5-5.56-1.37-8.43-2.65-7.86-5.33-14.92-6.99-21.76m-45 .16c-.32.12-.13.94.43 2.08.47.96.89 1.19.66 1.92-.53 1.66.22 1.99 1.2.52.75-1.16.83-1.13 1.53.35.93 1.85.5 2.7-.91 1.5-1.07-.91-1.34-.24-1.76.49-.54.95-.46 1.8.51 1.73q.85-.05 1.53.7a8 8 0 0 0 4.1 2.41c.51.01.35-.49-.87-1.35-2.9-1.98-3.15-2.34-.34-2.3.72.05 1.83-.46 2.47-.68 3.67-1.23 3.85-1.13 5.6-.72.59.14 1.19.39 1.44.15.4-.36.84-.6.34-1.15-.36-.4-1.04-.7-1.86-1.17-4.27-2.46-4.66-3.05-9.67-3.18-.58-.02-.87.28-1.2.29-.83 0-1.26-.2-2.08-.96-.57-.52-.94-.7-1.12-.63m55.79.09c1.93 6.83 4.52 13.74 6.75 20.03 1.69 5.2 4.28 12.9-.5 16.2l-1.29-.02c2.33-3.14 2.65-5.85 1.82-9.76-2.74-11.85-7.95-18.67-8.52-26.33zm-8.07.09 2.15.1c1.45 8.06 5.64 13.9 7.96 23.73 1.16 4.27 1.92 9.2-2.16 12.21h-1.23s1.93-3.4 2.05-5.39c.22-3.58-1.16-7.45-2.42-11.66-1.93-6.49-5.2-12.7-6.35-19m3.1.1 1.91.03c2.12 9.5 6.52 16.3 8.82 26.77.81 4.36.11 7.05-2.6 9.14l-1.32-.04.7-1.23c2.42-4.4 1.1-8.48-.12-13.04-2.26-8.53-6.41-15.3-7.4-21.62m-42.89 4.01c-.32.85-.6 2.02-1.72 2.4-.23.08-.39-.1-.36-.17-.02-.6.4-1.85.74-2.5.11-.3.3-.33.56-.38.82-.07.98-.04.78.65m1.83.02c.57.27 1.08 1.06.7 1.33a5 5 0 0 1-2.14.64c-.36.02-.37-.13-.23-.45.24-.52.69-1 .98-1.43.2-.3.6-.13.7-.09m-7.85 8.69c-.46.03-.47.45.51 1.05 1.34.82.68 2.99-.95 2.97-.7-.01-1.19-.33-3-1.67-1.48-1.1-2.88-1.19-3.2.3-.2.9.1 1.3 1.05 1.06.42-.1.67.15 1.23.54 1.23.72 2.42 1.77 3.76 1.46 3.16-.87 3.82-4.02 1.77-5.31-.47-.3-.9-.42-1.17-.4m11.46 4.6c-.19.27.02.67.71.77 2 .66 2.7 3.01.9 4-.97.52-2.54.19-4.43-1.22-3.38-2.52-7.51-2.68-6.97-.13.13.62.4.7 2.86 1.04 2.01.28 2.92.92 3.8 1.4a7 7 0 0 0 3.62 1.02c4.73-.27 4.27-6.08 1.34-7.06-.66-.25-1.25-.04-1.83.19m-65.26 16.75c1-.02 1.47.77 1.96 1.46 1.82 2.55 3.14 5.08 5 7.99l-.25 2.71s-.49-.1-.76.03c-.54.26-.86 1.1-1.16 2.23-.5.98-3.38 3.21-4.5 4.4-.2.14-.37.37-.37.5.01.44 1.25.15 2.08-.8 1.2-1.08 1.72-.71 1.68.67.12 1.7 1.15.85 1.2-.82a3.8 3.8 0 0 1 1.5-2.84c1.72-1.39 1.43-1.04 1.35-2.96-.14-3.36 1.15-6.12 2-4.3.3.66.64 1.4 1.4 1.43.53.02.79.55 1.08 1.85.44 2.1 1.05 3.45 1.6 5.39l-15.99 9.11c-2.78-3.25-4.8-8.67-5.83-12.2-.52-1.76-.58-3.77-.12-4.05s.66.02.57 1.07c-.07.88-.09 1.56.28 1.55 1.08-.28 1.12 1.37 1.01 1.75-.07.26-.2.45-.26.59-.27.63.43.55 1.15.56.64-.02.8.37.77.98.02.67.9.54 1.41.03.46-.47.37-1.02-.26-1.4-.9-.56-1.75-1.92-3.84-6.62-1.21-2.72-.85-4.66.6-4.63 1 .03 2.17 2.8 3.11 4.84.25.52-.37 1.11-.58 1.4-.56.73-.47.96.35.97.77.02 1.1-.05 1.57.9.17.37.3.92.24 1.27-.4 1.05.42 1.3 1.21.9 1-.42 1-1.31-.53-2.78-.98-1.62-.73-1.51.2-2.6q.3-.6-.33-.63c-1.18.36-2.46-1.78-2.11-2.5.36-.32 1.35-1.46.4-1.24-1.95.53-3.13-2.33-1.99-3.3 1.7-.86 2.11-.6 4.74 4.69.81 1.64 1.8 3.4 1.92 3.58s.17.66.16 1.05c-.11.96.3 1.18 1.12.8.62-.15 1.18-.66.4-1.15-.92-1.6-1.25-1.85-.74-2.25 1.14-.92.64-.88-.64-1.14-.63-.19-.94-.51-1.12-.9-.66-1.5-1.83-3.61-1.95-4.05-.39-1.1.31-1.59 1.27-1.54m73.33.73q3.07 1.3 5.53 2.5c-5.1 10.06-11.07 13.69-21.58 18.16l.98 4.5c11.19-4.2 18.3-9.23 23.93-19 6.8.1 34.41.3 34.44.22-11.26 12.89-20.13 32.33-21.1 47.5-.24 2.94.17 1.52-1.13 2.4l-2.04 2.45-1.6-2.4s-1.16-1.5-1.9-.26c-2.04 21.15.13 45.25 10.24 62.06-1.79.12-3.58.17-5.3-.86-3.95-9.02-6.29-20.17-7.3-28.52-1.28-10.58-1.1-22.5.2-32.64l-.67-.1c-1.97 13.17-1.3 27.17.5 39.41.94 6.39 3.93 16.37 5.98 20.98.57 1.28 1.01 1.6.47 1.8-12.32 1.04-18 5.18-22.42 11.8-1.82-1.17-4.06-2.6-6.64-3.32a36.6 36.6 0 0 1 21.94-17.56c-.25-1.29-.43-2.57-1.67-3.36.04.2.59 2.48.47 2.95-10.29 2.65-19.34 12.8-21.66 18.02l-45.2.5c33.5-32.37 34.84-77.93 7.5-116.12l3.14-1.85c21.07 31.78 20.86 62.4 14.54 82.9a82 82 0 0 1-18.63 32s24.51.33 36.71-.12a52 52 0 0 1 5.8-7.54s-6.2 6.03-6.04 7.08c-11.3 0-22.96.66-34.25-.13 13.21-15.92 19.72-32.36 20.85-47.82.05-2.01.17-.89.83-1.63l2.08-3.26 1.68 3.39c1.13.37 3.37-.23 4.32.12 4.64-20.88-.05-46.1-6.17-62.54 3.33-1.06 7-.06 11.03-2.1.25-.3.71-.7 1.23-.99 5.02-1.84 10.91-8.72 10.91-8.62m-34.72.22a1.8 1.8 0 0 1 0 3.59c-.98 0-1.77-.81-1.77-1.8 0-1 .8-1.8 1.77-1.8m41.57 2.03h44.6c-17.13 18.57-24.98 34.25-26.22 55.47-1.17 20.2 3.93 38.66 19.44 60.86l-3.2 2.14c-26.5-40.34-25.31-83.18 4.25-115.65l-37.4.05c-4.76 9.46-12.7 15.23-22.84 18.78l-.88-2.97c11.66-3.77 17.56-10.02 22.25-18.68m-68.1 2.5c.52.22.22 2.95-.47 2.95-.76 0-1.76-2.31-1.16-2.77.53-.42 1.1-.42 1.63-.19m21.62 1.2c.46.82 1.08 1.27 1.64 1.84-.91-.07-2-.53-2.83-.98.57-.34.81-.44 1.2-.86m2.47 4.04 5.52 2.13-1 5.97-5.57-2.23zm13.53 2.27c7.43 19.24 9.06 42.95 6.15 61.57l-1.94-.07c3.18-31.56-3.07-47.53-8.6-61.42 0 0 .02-.56.2-.72 1.5-.56 3.04-.51 4.19.64m-25.15-.75c36.72 51.56 13.31 95.64-8.09 116.26l-4.38.24c3.6-3.3 6.5-6.7 9.55-10.34a1337 1337 0 0 0-27.46-36.83s-2.91 1.74-2.9 1.96c.01.11.23.69.29.56.12-.3 2.36-1.56 2.36-1.56l26.66 35.24-1.9 2.29c-2.06.68-7.83 7.87-8.11 7.72-4.52-3.48-18.14-18.25-23.38-22.78l-.07-41c.54-1.63 15.06-7.95 25.32-31.54 5.16-2.9 10.87-4.47 16.19-7 0 0-1.35-2.14-2.01-2.73.8 1.77.95 2.1-.89 2.86l-38.38 15.75.07-3.18c3.85-3 29.3-21.54 37.13-25.92m-22.03 1.18a31 31 0 0 0-4.33 4.2c-.33.65.01.78.14.63 1.57-1.2 3.02-2.53 4.73-3.56.64-.38 1.4-1.37 1.4-1.63-.26-.35-1.36-.03-1.94.36m38.67 6.63 4.97 2.25-1.27 5.92-4.84-2.35zm3.87 9.34 4.37 3.11-2.06 4.78-4.14-2.82zm-12.77 2.98c-4.5 11.27-8.2 18.82-16.98 30.82 5.4 7.13 20.91 27.7 21.46 27.49l.01-.01c6.69-20.92 4.68-40.9-4.49-58.3m-20.88.91a80 80 0 0 1-9.19 14.84c-5.2 6.67-14.33 14.18-14.36 14.12l-.24-3.85.94 1.4 1.73-1.33-1.2-1.6-1.52 1.18-.09-1.55c9.58-6.97 13.71-14.98 17.6-20.99l1.73-.73 1.96.62.97-1.71zm-5.31 2.4-.84 1.7 1.94 1 1.01-1.77zm-2.29.2c-4.45 7.63-9.7 14.71-17.06 20.34l-.08-13.68zm1.02 2.3-1.01 1.8 1.9 1.07 1.02-1.76zm42.66.62 4.03 3.1-1.96 4.38-4.04-2.64zm58.83.34c-6.95 20.94-4.37 40.56 3.79 58.71 4.84-10.34 9.6-21 17.3-29.06zm-102.97 1.6-1.1 1.76 1.85 1.14 1.1-1.71zm29.47 1.02c4.23 13.35 6.14 26.47 2.1 40.72l-15.18-19.73c5.08-6.09 9.3-13.26 13.08-20.99m-31.19 1.58-1.2 1.72 1.84 1.2 1.19-1.66zm-1.76 2.46-1.26 1.6 1.71 1.33 1.26-1.6zm49.93 1.7 3.37 3.26-2.5 4.3-3.24-3.46zm-52 .86-1.37 1.51 1.65 1.44 1.36-1.52zm110.41.63 15.05 19.14c-5.51 6.9-9.17 13.42-12.76 19.78a57.5 57.5 0 0 1-2.29-38.92m-112.5 1.66-1.4 1.46 1.54 1.5 1.42-1.46zm-2.2 2.3-1.5 1.37 1.4 1.5 1.52-1.35zm38.12.76-6.99 9.53 7.93 9.8c.49 0 .92-13-.94-19.33m-40.4 1.32-1.57 1.3 1.35 1.55 1.56-1.29zm59.23.92 2.97 3.5-2.6 3.5-2.71-3.34zm60.06 2.2a50 50 0 0 0 1.01 20.36l6.95-10.12zm-18.26 2.08 2.44 3.9-2.72 3.53-2.58-3.72zm-41.48 4.1 2.53 3.22-2.68 3.34-2.33-3.16zm41.38 4.02 2.71 3.07-2.75 3.74-2.85-3.35zm63.95.05c.03 1.02.03 1.2.03 1.7l-.73.52.72 1.22-.02 2.6c-5.62 4.53-11.39 8.54-17.98 21.37l-2 .97.12-.36-1.84-.88-.94 1.83.64.25c-1.01.58-1.02.47-3 1.45 0 0 1.49-3.48 2.58-5.52 5.2-9.09 11.92-18.14 22.42-25.15m-1.64 2.9-1.64 1.2 1.19 1.65 1.64-1.19zm-2.7 2.04-1.58 1.28 1.27 1.59 1.58-1.29zm-2.38 1.96-1.49 1.38 1.37 1.5 1.5-1.38zm7.22.12.3 12.62-17.39 7.37a44.4 44.4 0 0 1 17.1-20m-64.55.82 3.46 3.2-2.2 4.29-3.41-3.26zm54.88 1.36-1.4 1.47 1.47 1.41 1.4-1.47zm-2.3 2.47-1.3 1.55 1.53 1.32 1.31-1.55zm-2.08 2.5-1.25 1.62 1.6 1.26 1.24-1.62zm-49.05 2.25 3.9 3.25-2.36 4.4-3.8-3.64zm47.18.2-1.14 1.69 1.67 1.14 1.14-1.68zm-1.68 2.52-1.06 1.74 1.72 1.07 1.06-1.74zm17.32 1.71v3.05s-28.7 10.71-39.03 16.63l-1.57-2.4c13.65-5.44 27.94-12.63 40.6-17.28m-18.9.8-1 1.77 1.75 1.02 1-1.77zm-1.51 2.76-1.02 1.77 1.76 1.02 1.01-1.77zm-40.5.67 4.23 2.93-1.95 5.07-4.2-3.08zm60.62 4.85v104.02h-46.12l-10.61-19.38a4.8 4.8 0 0 0-.68-3.51 4 4 0 0 1-.55-1.68c-.1-.96-.1-.96-1.5-2.22-.29-.27-.35-.43-.24-.7.46-1.18.2-3.58-.72-6.44-1.15-3.62-1.45-3.57.7-8.4.45-1.02.99-2.37 1.57-3.6 2.65-5.48 3.05-6.97-1.49-9.89-1.28-.82-1.66-1.53-1.34-3.17.26-1.29.3-2.1-.3-2.83-.3-.35-.98-.74-.98-.74s.17-.02.3-.21c.14-.19.38-1.28.28-2.19-.27-2.42 2.53-5.97 5.06-7.25.18-.1.55-.21.55-.21s.2.46.39.8c2.63 4.64 9.18 2.76 9.61-2.78a6 6 0 0 0-.08-2.03c7.98-4.8 12.97-8.06 18.66-11.35 2.48 4.35 1.6 8.2 1.09 11.96.05.66.6.77 1.44.78 1.42.02 3.46-1.43 3.9-2.77.38-1.15.62-1.9.96-1.89s.51.47 1.37 2.12c1.77 3.44 2.05 3.88 3.7 5.88 1.33 1.59 2.46 1.8 3.76.61.9-.82.88-.1 1.64.31 1.33.91 3.32.1 3.37-1.18.04-1.07.05-1.88 1.13-1.95 1.2-.08 1.73-1.64 1.39-3.87-.18-1.18-.22-1.36.14-1.8 1.16-1.4 1.32-2.37.68-4.32-1.83-5.59-4.47-9.35-6.95-14.42 0 0 6.13-3.6 9.87-5.7m-57.79 4.35 5.15 2.9-1.48 5.55-5.11-2.65zm53.9 15.8c1.1 2.4.02 4-1.4 2.06-.55-.76-.27-1.24 0-2.7.05-.26-.2-.15-.65-.23-.71.08-1.06-.57-1.03-1.66.45-1.57-.18-.72-.47-.65-.57 0-.7-.35-1.02-1-.2-.92-.6-.65-1.18-.05-.49.5-.49.5.49 1.67 1.69 1.84 4.02 6 4.63 8.52a3 3 0 0 1-.02 1.63c-.76 1.73-1.82 1.73-2.98-.68-.2-.41-.59-1.07-.86-1.47a3.4 3.4 0 0 1-.7-2.24c.34-.86.4-.88.1-1-.74-.29-2.04-1.62-2.1-2.82-.06-1.21-.26-1.86-1.21-1.14-1.08.83-.62 1.16.44 2.21 1.12 1.34 1.19 2.5.52 3.46-.1.33-.06.42.35.38 1.3-.13 2.56 1.53 1.66 2.78-.42.74-.37.93.22.95.3.01.8-.05 1.06.1.38.72 1.18 1.73 1.17 2.56-.37 1.16-.96 1.63-1.58 1.63-.7-.02-1.45-.64-1.98-1.54-1.24-2.1-2.74-5.62-3.7-7.56a2.3 2.3 0 0 1-.23-1.15c-.07-1.14-.45-1.57-1.12-1.06-.66.5-1.58 1.35-.5 1.48 1.08.82 1.68 2.02 1.01 2.76-.5.54-.3.89.1.9 1.51.03 3.76 4.56 2.7 5.54-1.43 1.31-3.02-.32-6.4-7.06-1.48-2.98-1.55-6.24-.28-4.62.44.4.35.2.86-1.1.38-.96.7-1.41 2.15-2.82 1.77-1.72 2.85-3.08 2.89-3.37.08-.57-.96-.04-1.71.95-1.69 1.66-1.75 2.1-1.74-.1.02-1.99.12-2.35-.24-2.34-.55.02-.85 1.6-1.1 3.5-.31 1.7-1.2 2.56-2.66 3.51-.4.27-.41.45-.34 1.2.27 2.41-1.09 6.91-1.7 5.8-.1-.25-.37-.84-.51-1.25-.12-.63-.51-1.35-1.12-1.4-.75-.56-.75-.87-1.01-2.95-.24-1.42-.82-2.73-1.12-4.14 0 0 9.99-6.25 15.2-9.25 2.94 4.31 5.2 9.53 7.1 13.76m-164.96-11.93 13.54 13.4s.26 17.29.25 24.35-.12 14.14-.09 15.45c.03 1.32-.07 6.91-.11 12.65-.09 12.03 1 10.55-1.22 12.85l-12.22 11.51zm114.81 5 6.55 3.04-1.22 6.4-6.25-2.98zm41.9 1.46c-1.6 2.15-3.82 3.06-5.17 5-.21.37 0 .52.33.51.28 0 1-.32 1.97-1.2 1.79-1.64 4.15-4.33 4.16-4.84-.46-.26-.98.12-1.28.53m-50.26 6.32c1.88.05 1.22.47-.5 1.58-3.65 2.37-8.79 9.17-9.62 11.58-.2.57.03.9.39.85 3.01-4.85 6.99-10.18 11.6-12.41 2.5-1.2 5.64-1.44 7.19-.68 1.13.55.85.75-1.16.88-4.84.48-10.5 5.05-13.3 9.88-1.65 2.68-.5 2.06 1.38-.52 3.2-4.4 9.56-8.63 13.5-8.3 3.98.24 6.28 3.35 5.76 6.02a4.6 4.6 0 0 1-3.67 3.72c-3.82.81-6.32-5.28-2.82-6.43.89-.29 1.9.1 1.9.1-3.67.76-1.92 4.8.06 4.89 1.35.06 2.96-.73 3.03-2.88-.04-1.6-1.35-3.17-3.97-3.2-3.11-.05-7.89 2.2-10.78 6.36-2.06 3.17-.17 2.1 1.37-.02 1.35-1.86 5.56-4.48 5.9-4.38-.11.64-.32 1.13-.15 2.15-.07-.37-6.71 4.56-6.32 7.97.16 1.61.16 2.43-.63 2.85-5.12-1.43-6.4.13-6.76 0-.23-.09-.07-.54-.57-1.28s-1.26-1.49-.82.3c.44 1.8.3 3.1.74 3.25.15.05.46-.53.8-.65 3.26-.83 7.94-1 7.96 2.78-.13.8-.28 1.52-.06 2.04.37.84 1.86 1.71 3.53 2.95 1.98 1.47 1.61 1.56-2.6 11.34-1.77 4.1-1.78 4.94-.72 7.97 1.68 4.8 1.94 6.71-1.2 7.38q-2.68.3-5.47.3a59 59 0 0 1-16.72-2.54c-3.37-17.11-9.27-28.62-9.25-35.32 2.44 2.17 6.23 2.81 8.79-.67 1.62-2.13-.01-5.1.81-6.34 1.58-2.32 5.62-6.6 6.3-6.46.49.1.4.32-1.33 3-1.8 2.78-3.18 5.3-2.59 5.93.25.26.39-.3 1.74-2.65 3.16-5.53 5.93-8.94 7.03-8.5.52.2.26.67-2.08 3.78-2.65 3.51-3.38 5.71-3.12 6.69.2.74.61-.46 1.7-2.62 1.18-2.29 3.3-4.84 5-7.28a4.5 4.5 0 0 1 2.13-1.8c.66-.3 1.7-.76 2.32-.68.31.04.1.22-.34.64-3.37 3.5-6.26 7.4-7.91 11.14-.25.49.1 1.19.53.67 2.52-4.47 6.03-10.04 9.84-12.5a7 7 0 0 1 3.16-.88m-92 1.98 8.25 8 17.67-.23c-2.91 4.76-2.98 8.54-1.09 13 3.18 7.3 8.08 23.93 7.7 23.88 0 0-.13.36-.54.45-1.46.33-2.4 1.75-1.97 3.46.08.55.07.42-.3 1.14-1.44 2.47.27 5.15.27 5.15l-15.49 26.19h-28.61v-4.46l14.11-14.38v-10.78c5.4 2.06 9.8 9.63 11.28 15.4 13.56-10.08 14.2-32.41-.6-43.76-.13 4.93-4.07 14.61-10.68 15.33zm106.13.81c1.14.19 4.19 1.07 2.76 1.75l-1.29.62c-.84-.65-1.15-1.5-1.47-2.37m24.99 1.7c.06.35.06.69.15.75.56.35-.37 1.4-1.24 1.38-.97 0-.81-2.44-.31-3.13.78-1.1 1.29.37 1.4 1m-28.02 2.35c.95 0 1.71.77 1.71 1.72s-.76 1.72-1.7 1.72c-.95 0-1.71-.77-1.71-1.72s.76-1.72 1.7-1.72m-34.9 6c.99 2.31.23 5.1-2.42 6.06-4.6 1.65-7.97-4.26-3.46-6.08 2.33-.94 4.55.76 3.5 2.73-.74 1.39-2.81 1.24-3.3-.2-.4-1.51-1.06-.8-.78.23.86 3.29 5.04 2.51 5.38-.51 0-3.75-4.07-4.63-6.5-2.52-1.89 1.68-2.08 4.72-1.61 7.35.64 5.48 3.72 12.58 5.9 20.69 1.1 4.05 2.68 8.87 3.24 13.03l-1.63-.46c-.01 0-5.1-17.51-8-26.06-2.21-6.96-4.14-15.53 3.94-17.38 2.42-.55 5.03 1.42 5.74 3.11m-10.7-3.3v.05h2.23s.01.14-.97.88c-5.42 4.08-2.19 13.07-.14 19.98a566 566 0 0 1 6.71 22.32l-2.24-.87c-1.23-7.17-7.03-20.89-9.07-31.12-.57-6.15-.67-7.96 3.47-11.23m-10.67.01 1.53.05c-5.86 11.03 3.02 22.44 6.53 39.34l-2.1-.64c-2.83-12.53-13.74-33.07-5.96-38.75m-2.45.05h.65c-2.7 4.1-2.2 9.3-.75 14.9 1.94 7.54 5.7 15.83 6.96 23.27-.64-.36-1.56-.53-2.26-.74-2.2-9.47-6.22-18.79-8.05-27.61-.61-4.83.44-8.45 3.45-9.82m5.56 0h1.76a11.8 11.8 0 0 0-1.99 7.98c.69 11.24 6.38 22.14 8.44 32.5l-1.95-.72c-2.23-12.37-13.33-30.85-6.26-39.76m3.81.02h1.93c-2.06 2.06-3.44 2.66-2.86 9.83.91 9.22 6.95 20.73 9.06 32.11l-2.1-.8s-.56-1.66-.76-2.6c-2.05-9.16-7.63-19.46-8.28-30.17-.14-3.51.45-6.79 3.01-8.37m-19.55.23h1.27c-2.59 3.11-2.46 7.35-1.35 11.9 1.83 7.53 6.26 16.6 7.36 24.14l-1.84-.17c-1.84-8.08-5.43-15.94-7.75-24.02a20 20 0 0 1-.66-5.7c.32-3.44 1.73-6.15 2.97-6.15m4.56.03c-2.49 3.35-2.84 6.84-1.7 11.35 2.33 9.27 5.87 17.35 7.61 25.04l-1.79-.34c-2.09-7.45-5.64-16.69-7.77-24.39-1.32-4.73-.79-10.56 2.15-11.63zm-9.65.01c-1.78 1.68-2.4 4.5-2.11 7.42.8 8.26 6.6 19.72 8.71 28.52l-2.05.43c-1.8-7.73-6.13-19.52-7.69-23.59-2.07-4.15-1.45-10.31 1.66-12.75zm2.92.02c.21 0-2.09 3.59-1.9 6.66-.05 1.63.13 3.39.6 5.12 2.88 8.33 5.74 15.88 7.95 23.82l-1.86.1c-2.55-9.89-7.48-18.74-8.68-28.1-.27-2.69.18-5.3 2.4-7.57zm8.33.01h1.86c-2.03 2.1-2.95 5.38-2.27 9.25.68 3.96 2.71 10.23 4.4 15.75 1.95 6.4 3.52 11.82 3.34 11.86l-2.1-.32c-3.97-18.34-12.67-29.73-5.23-36.54m40.3 11.9c-1.77.04-3.48.98-3.9 2.4-.52 1.73-.1 4.88 3.34 4.88 1.17 0 1.91-.88.44-1.15-5.25-.95-1.73-6.43 1.97-3.6 3.34 3.03 7.8 3 7.86.86 0-.55-.02-.56-.81-.72a29 29 0 0 1-5.7-1.74c-.63-.32-1.28-.61-1.46-.66a5 5 0 0 0-1.74-.28m-69.12 4.96c13.35 12.2 10.88 29.7.62 39.84l-.75-2.18c5.67-3.27 12.62-21.5-.13-34.9zm77.66.8c-2.45.05-4.41 2.32-2.88 4.72.38.6 1.34 1.13 1.75 1.1q.09 0 .15-.03c.13-.08-.17-.62-.6-1.23-2.04-2.76.77-3.58 2.76-2.1 1.9 1.48 4.81 1.34 4.39-.21-.15-.55 0-.82-1.06-.83a2.8 2.8 0 0 1-2.02-.65 4.2 4.2 0 0 0-2.5-.77m-78.23 2.9c10.06 10.23 7.82 25.05.22 33.57-1.95-4.05-4.17-7.63-7.19-9.82 1.63-3.91 2.33-8.23-.43-14.04 1.94-1.07 4.62-3.9 7.4-9.71m70.06 4.04c-1.12-.03-.65.7.65 1.2 1.27.5 2.85 1.85 2.84 2.23 0 .3-.4.12-2.7.75-.99.28-2.38.9-2.97 1.17-.97.45-1.02.44-2.54.4-2.6-.08-3 0-1.17 1.37 3.67 2.74 8.57 4.53 11.17 3.4.8-.35.77-.14 1.34.19q1.14.63 1.76.62c.76 0 .78-.71-.45-1.8-.75-.65-.69-.43-.65-.85.18-1.8-.1-3.43-.83-1.59-.2.5-.48 1.05-.76.98-.54-.17-.27-1.17-.53-1.67-.44-.9.03-1.11 1.1-.84.77.2.82-.22 1.3-.75.83-.94.7-1.5-.6-1.2-.2.04-.39-.02-.55-.06-.4-.1-.77-.35-1.73-1.09-1.23-.94-2.98-2.2-4.1-2.4a4 4 0 0 0-.58-.06m2.42 5.46c.2 0 .4 0 .48.1.24.34-.58 2.02-1.05 2.25-.25.14-.5-.07-.68-.18-.15-.1-.07-.34.05-.54l.83-1.58zm-1.28.22-.77 1.42c-.16.3-.23.42-.36.42q-.1 0-.32-.1c-.67-.26-1.83-.8-1.33-1.23.82-.5 2.53-.67 2.78-.51m-79.3.95c3.6 6.31.63 12.59.39 12.28l-3.26-1.22v-10.16zm70.55.71c-.24.02-.36.18-.24.51.1.27 1.55 1.4 2.83 2.11 2.73 1.67 5.27 3.1 8.18 3.12q1.45.03 3.06-.48c1.1-.42.97-1.3-.05-1.11l-1.37.24q-3.74.66-9.34-2.75c-.9-.56-1.9-1.09-2.14-1.27-.34-.26-.7-.39-.93-.37m-2.04 3.21c-.6.07.14 1.18 1.92 2.26 4.62 2.82 9.3 4.9 13.87 4.7 3.39-.15 3.94-.4 3.96-1.14.02-1.4-.55-2.02-3.7-1.68-2.73.3-6.67-.13-9.4-1.3a76 76 0 0 1-4.95-2.25q-1.3-.65-1.7-.59m4.4 11.27c5.75.94 12.6.92 18.57.58 1.12-.07 1.2 2.69 1.2 2.69.78 8.36 6.67 15.28 10.74 24.38-29.92-.82-60.02.06-90.16-.17 0 0 10.95-19.21 14.27-25.26.73-1.32.8-2.26.4-2.82a2.8 2.8 0 0 1 .13-3.13c.74-.34.44-.94.12-1.63-.53-1.84.85-3.12 2.3-3.71 14.96-2.55 28.55 6.52 42.43 9.07" style="fill:#131f67;fill-opacity:1;stroke-width:1.05851" transform="matrix(-.941705 0 0 -.940506 5696.3471 1055.0761)"/><path d="M3695.52 254.86s11.2-21.9 15.18-27.64c21.2-2.29 16.7 8.53 60.53 8.44l9.52 18.92zm-19.6-21.8-.3-60.56 2.85 2.68.68 60-12.77 12.3-.07-3.6zm7.73-6.82c3.04-6.16-.35-13.68-.35-13.67 1.76.43 6.68-8.95 7.11-8.68 7.53 9.28 8.83 23.11-.36 31.68a24 24 0 0 0-6.4-9.33m5.62-42.25c5.71-5.87 10.25-10.45 14.78-17.03.37-.53-24.12-31.82-23.74-32.37 3.78-4.2 8.84-7.28 12.78-12.35 0 0 20.1 26.44 20.55 26.2 2.04-8.27 3.53-15.76 3.14-24.41-1.24-22.13-10.64-35.68-10.72-35.41-7.99 31.86-42.04 52.42-40.59 48.93l-.03-14.2c.37.7 16.1-9.12 24.92-30.13.51-1.21 15.45-6.11 15.34-6.3-.64-1.65-7.23-11.03-7.23-11.03s2.66-1.25 2.96-1.24c8.55 10.69 15 24.77 17.2 38.18 2.66 14.44 4.38 41.6-24.42 71.25zm86.34-37.36c-4.51-14.07-4.39-28.63-2.32-38.8 3.17-18.42 14.75-31.62 24.03-41.68l4.08.14c-6.93 6.16-11.37 12.13-13.98 17.41l24.03 31.6 13.7-2.98s-.41 14.13.01 14.13c-10.64 8.86-18.3 16.88-23.79 29.8-3.37 1.25-14.53 6.09-14.53 6.09-3.32-4.44 15.4-36.5 11.78-35.13-1.65-1.37-19.95-26.2-20.3-26.14-8.44 25.97-.21 53.24 14.63 72.29-1.69 1.1-3.21 1.95-3.07 1.69-6.36-8.87-11.93-19.45-14.27-28.42m-43.91-13.02c.95 1.48 5.22-31.7-6.01-58.25 1.07-.81 10.34-2.6 10.34-2.6l2.5 7.96-6.33 2.69 1.17 3.73c4.9-2.4 15.54-5.94 22.08-16.86 0 0 31.78-.28 32.46-.22.65.06-6.49 6.94-13.26 20.87a63 63 0 0 0-6.07 24.26c-.1 1.9-7.27-8.98-7.27-8.98 1.79-9.2 6.57-18.24 11.33-27.3 0 0-7.3-.42-12.41-.27-7.94 8.73-12.92 13.33-24.9 17.5 2.75 13.8-5 15.16 25.14 19.53-3.42 17.8-1.9 39.13 5.38 59.42-6.98.53-7.28.9-10.9 1.9l-2.52-7.4 6.8-3.15-1.1-4.18c-.02 0-15.02 4.57-22.36 17.72l-32.85.04c12.67-13.82 17.84-27.5 20.59-45.57 2.68.48 8.19-.84 8.19-.84m80.78-119.33c4.13-3.48 12.41-12.53 12.41-12.53l.11 4.64-9.4 9.83.1 60.75-3.2-3.07zm-4.35 22.23c-1.7.8-5.07 4.8-6.68 9.29-10.9-9.8-6.41-27.79-.45-31.54 1.73 3.93 6.75 9.14 6.63 9.03-1.15 4.12-2.03 8.3.5 13.22m-96.5-40.78 84.06.15c-4.8 9.5-9.2 17.17-14.3 26.51-2.64 3.22-60.04-10.39-60.31-9.03z" style="fill:#e2cf00;fill-opacity:1;stroke-width:.99617"/><path d="m3666.2 242.77-.56-79.76 9.55 9.33.57 61.25zm43.84-15.46c-1.97-.96-.07-3.46-1.23-5.48 1.26-4.06 11.69-2.11 18.08-.69 15.93 4.15 19.52 9.52 41.48 7.53.18.3 2.41 6.1 2.26 6.7-18.89 3.75-43-10.2-60.59-8.06m34.05-41.3c-1.99-1.45-3.86-1.72-5.7-2.03 3.24-5.73 7.16-10.96 13.72-14.22l3.05 7.58c-3.86 2-7.64 4.37-11.07 8.67m-39.8-19.7s-2.83 4.65-5.5 6.9a2603 2603 0 0 0-25.67-33.47l-7.53 3.83s-.03-4.4.14-4.72c20.33-10.53 34.29-30.45 40.43-49.1 0 0 3.27 3.36 2.84 4.78-5.5 14.71-14.9 29.47-28.72 40.53zm25.36-21.7 25.67.03 1.14 8.98c-9.83 3.3-17.94 10.08-25.53 17.9l-12.17-.21c3.99-8.8 9.53-17.72 10.9-26.7m95.05-37.82c.83 2.53-.01 5.26.31 5.15-30.75 15.3-39.54 48.86-39.54 48.86s-2.92-4.65-2.78-5.37c15.91-35.57 26.56-36.63 28.6-40.5l-24.2-31.5 5.48-7.49 25.96 33.98c2.58-1.2 4.05-2.2 6.17-3.13m-15.16 46.03c5.21-9.43 10.6-14.92 15.95-18.69l-.26 12.45zm-143.77-37.02.14-12.07 15.84-6.86c-4.38 9.6-10.33 14.75-15.98 18.93m70.57-10.85-.94-8.5c9.62-4.21 18.11-9.86 24.97-17.58 7.37-.35 12.4.15 12.36.05.01-.02-6.6 9.87-11.24 26.17zM3816 15.73l8.75-8.89.27 79.52-8.79-8.57zm-76.93 64.63-2.77-7.87c4.37-1.64 7.67-5.23 10.75-8.78 2.27 2.57 6.03 3.08 5.99 2.9-5.45 8.58-10.05 11.42-13.97 13.75m-16.4-59.6s-1.1-.63-.98-1.52c.36-1.16-1.16-3.8-1.16-3.8 18.63-5.68 45.78 10.32 61.88 6.96-.13 1.13.06 2.48-.4 3.55.5 2.26.86 2.34-1.34 3.72-11.31 3.22-23.24-3.65-34.3-6.93-9.01-2.86-16.34-2.13-23.7-1.97" style="fill:#d40000;fill-opacity:1;stroke-width:.99617"/><path d="m2002.78 840.85 3.63 6.87-.62.43c.99 1.66 1.83 3.52 2.84 5.17l.73-.09c1.19 2.3 1.67 3.15 3.23 5.87h-.7c.36 1.21 1.3 2.02 1.31 2.88.01 1.09-.27 2.18.4 2.91.78.87.87 1.11.7 1.62-.42 1.35.8 2.84 2.03 2.7 8.7-1.16 17.53-.1 26.4 2.52 8.92 2.64 16.71 6.7 25.4 7.4 8.15.6 12.72-1.08 11.34-4.48-.76-.78-.24-1.07.1-1.53 1.33-1.37.58-2.37-.23-3.9 0 0 10.45-18.78 15.68-28.14zm1.45 1.68h89.08l-7.63 13.25a4.1 4.1 0 0 0-5.1 3.2c-5.3-1.37-4.48 5.54-1.83 6 .18 1-4.35 2.25-6.74-.1 3.67.5 4.97-4.38.49-5.46 5.9-4.42-5.17-11.02-5.3-1.9-5.21-.92-4.53 6-1.23 6.54-1.7 1.87-6.66 1.93-9.26-2.02 4.42 2.3 6.81-3.65 2.22-5.32 5.66-5-5.42-9.6-5.16-1.52-4.18-2.5-7.06 3.85-1.48 4.83-.32 1.14-7.62 1.15-9.48-1.8 5.18 1.19 5.42-5.16.85-5.68 4.59-5.85-7.06-8.81-5.1-.82-4.5-1.8-6.2 3.85-1.82 5.66.24.9-7.1 1.67-9.67-1.57 5.64-.86 3.66-6.35.01-5.91l.26-.7c1.72-5.52-7.55-5.98-6.27-.13.2.54.43 1.26.43 1.26-2.55-.52-4.12.53-3.93 2.94.64 3.2 2.32 2.97 4.47 2.33.9.95-5.2 4.12-9.02 1.29 4.69-1.36 2.31-6.88-1.61-6.14-.16-1.76-2.07-4.23-4.55-3.03zm121.04 4.1-14.37 14.83.05 63.8 14.64 14.72s-.14-62.95-.32-93.35m-.9 2.32v3.67l-10.16 10.54v64.86l-2.5-2.59v-63.11zm-100.34 1.32c.6 0 1.22.32 1.5.8.3.53.17 1.27-.32 1.88-2.08 2.6 4.44 7.1 9.14 6.31 3.57-.6 6.62-2.75 5.3-4.4-1.07-1.33-.37-2.68.92-2.67 1.32 0 2.38 1.06 1.23 2.51-2.54 3.23 1.34 7 7.29 7.09 4.2.05 5.6-1 5.37-4-.1-1.41.17-1.8 1.15-2.02 1.56-.34 2.34 1.46 1.05 2.83-2.79 2.96.38 7.3 5.66 7.59 1.93.1 2.32 0 4.47-1.22 1.69-.96 2.28-2.4 1.45-3.53-1.06-1.44.37-3.16 2.03-2.45 1.18.5 1.76 1.42.45 2.96-1.71 2.03-.86 3.59 2.4 4.84 2.07.79 3.52.72 4.71.2a8 8 0 0 0 2.06-1.38l-1.53 2.71c-5.4 2.42-9.6-2.11-9.47-2.28-5.56 3.23-10.49 2.55-14.65-2.87-1.09.6-8.84 2.02-14.44-4.16-5.65 2.85-10.9 1.66-15.57-1.53-3.45 3.27-7.08 3.8-10.86 2.22l-1.12-2.26c.29-.11 1.5 2.26 7.41 1.16 1.99-.37 5.4-3.73 3.5-5.36-.88-1.25-.91-1.8-.14-2.56q.45-.41 1.01-.4m-14.12 2.93c.46-.04.93.45 1.13.83.33.64.38 1.7.02 1.07-.2-.34-1.2-1.85-1.15-1.9m114.46 1.34v83.7l-8.58-8.63V863.2zm-100.17 4.06 2.73 1.72-4.88-.03zm15.32 1.44 2.28 2.23-4.8-1.01zm59.93.79c-8.98 7.96-10.42 24.32.2 35.16 1.73-3.92 4.05-8.9 7.8-10.5-2.8-5.59-2.43-11.18-.44-14.24-2.84-2.66-5.76-5.85-7.56-10.42m-17.1.37-1.02 2.1c-.59-.66-.76-2.07 1.03-2.1m17.02 1.16.62 1.53c-8 9.83-5.53 22.74.26 29.63l-.83 1.73c-7.07-7.5-10.17-23.36-.05-32.9m-72.38.26c5.11.01 9.73.9 24.62 5.3 9.26 2.73 16.67 6.99 27.37 3.2l.05 2.1c-6.8 4.39-20.38-.26-29.55-3.66-14.74-5.47-26.2-5.15-34.4-4.53-.72-.14-1.3-2.03-.14-2.05 5.75-.06 8.99-.37 12.05-.36m26.7 1.6 3.05 3.24a49 49 0 0 1-6.57-2.52zm46.41.8.6.82c.26.36-1.68.54-1.36.12zm-76.93 1.34c8.18-.11 16.13 1.33 24.7 4.59 11.05 4.17 23.21 8.34 31.2 4.6 0 0 .05 1.6-.86 2.04 0 0-.84.69-3.66 1.08-12.92 1.06-21.29-4.4-31.74-7.5-9.35-2.77-16.17-3.64-26.64-2.55-1.3-.11-1.28-.88-1.29-1.63q4.2-.57 8.29-.63m78.57.61 1.13 1.45-1.34 2.15s-1.19-1.1-1.79-2.17c-.4-1.05.81-1.33 2-1.43m-33 .39 3.5 2.65c-2.63.13-5.59.23-8.52-.94zm29.65 1.35q.4 0 .9.87c.65 1.11.57 1.33-.7 1.74-1.66.53-1.79.42-1.25-1.08q.54-1.52 1.05-1.53m5.31.68 2.37 2c-1.3 3.42-2.16 7.76.46 13.99-.29.02-1.99 1.7-2.52 2-1.5-.64-4.8-12.98-.3-17.99m-3.5 2.57.81.05-.6 3.78c-.05.3-2.62-1.79-2.38-2.84.35-.94 1.31-1.02 2.18-.99m8.38.61-2 5.92 2 5.9h1.06l-2-5.9 2-5.92zm-11.81.77c.3 0 .8.75 1.4 1.74.46.77.36 1.06-.67 2-1.52 1.55-1.82 1.04-1.48-1.59.16-1.3.4-2.16.75-2.15m3.14 3.42q.32 0 .52.16l.18 3.69c.01.33-2.86-.14-3.24-1.54-.48-.9 1.43-2.33 2.54-2.3m-3.79 3.11c.2-.02.85.4 1.46.77 1.06.63 1.08.9.17 2.08-1.07 1.39-1.6 1.17-1.77-1.24-.06-.88-.12-1.57.14-1.6m4.2 1.4q.19.02.26.1c.55.4 1.3 4.13.96 4.51-.46.55-2.91-.18-3.46-1.04-.45-.72.85-2.85 1.8-3.4a.7.7 0 0 1 .44-.17m-2.98 4.36c1.1.25 2.13.64 2.9 1.55.45.53-.15 1.56-.79 2.34-.42.52-.82.13-1.65-1.59-.66-1.38-.93-2.27-.46-2.3m5.1 1.68c.76.1.63 1.85-.3 2.88-1.13 1.27-2.2.3-1.39-1.26.32-.92 1.07-1.69 1.7-1.62m-61.03 26.42c-2.02 2.9-5.4 6.75-8.04 7.89a4 4 0 0 0-2.34 1.33c-.63.8-1.17.7-1.86.64a9 9 0 0 0-3.76.94c-.96.44-1.4.54-2.8.61-1.25-.04-2.44.45-3.5.8-1.23.36-.79.7-.09 2.3a119 119 0 0 1 7.08 28.74 135 135 0 0 1-.66 31.55c-3.43.02-5.58-.16-9.19-.1-2.46 20.13-9.14 36.11-22.5 50.48l36.1.1c4.13-11.1 23-19.55 23.62-18.93l1 4.05s-13.58 1.95-22.72 19.27c.93-.57 4.34-.17 6.59 2.17 4.48-5.72 11.85-9.46 11.9-9.37l.24-.7s1.35-.45 2.54-.68c.38-.07 1.16-.22 1.68-.4.8-.29 1.2-.59 2.43-.48 2.58.25 5.16-.5 5.1-.52-7.65-21.24-9.46-40.42-6.47-62.7 2.82.02 9 .13 9 .13.63-6.26 1.42-12.53 3.33-18.44 2.46-7.59 5.42-14.64 10.18-21.09 2.7-4.05 5.05-6.93 7.83-10.73l-35.33.08c-4.67 7.9-13.68 14.5-20.92 17.25-2.46.93-2.81.8-3.22-.37-.73-2.08-.7-2 1.23-2.54 9.46-3.36 15.3-9.34 20.18-16.95.52-.8.63-1.14.4-1.27-3.16.5-5.11-1.56-7.03-3.06m.25 1.16a9.4 9.4 0 0 0 5.95 3.04c-3.96 6.25-8.8 11.14-14.37 14.11l-2.83-8c6.94-3.24 8.8-6.5 11.25-9.15m59.32 1.25-5.5.08c-3.88 3.97-31.9 29.92-27.18 69.13 2.02 16.76 6.68 31.27 19.13 48.4l3.32-1.96.51.34 34.5-19.95.01-6.06-40.04 16.9c-.8-.86-1.26-1.8-1.93-2.85l16.05-6.86c4.82-13.31 15.7-24.34 25.83-32.08-.05-13.21-.11-40.88-.11-40.88l-24.13-24.16c-3.1 2.84-5.84 5.77-8.58 8.94l27.7 36.67-.92.6c-1.8-2.69-8.4-11.48-14.79-19.9-6.6-8.7-12.83-16.82-12.83-16.82l-.55.43s6.23 8.12 12.82 16.81c6.39 8.42 13.04 17.28 14.76 19.87l-.95.61-27.4-36.47c3.24-3.93 6.77-7.35 10.28-10.8m-4.96 1.15 3.22.15c-37.36 34.73-35.16 78.52-9 114.1l-2.74 1.65c-24.57-33.11-29.02-82.1 8.52-115.9m-44.95 4.34 23.18.11-5.1 8.08-13.73.17c-8.23 10.2-17.06 15.17-26.05 18.56l-.67-3.36 4.15 1.13.88-4.13-4.14-1.28-.9 4.26-1.07-5.32s14.23-3.45 23.45-18.22m33.77.02-6.23 8.13-8.37-.03 5.45-8.08zm-17.34.68-3.23 3.37 2.52 3.4 3.34-3.3zm-7.21.08-3.19 3.54 3.31 3.38 3.02-3.43zm-8.7.53-.55 5.3 4.15 1.37.6-4.53zm25.25.2-3.01 4.73 4.53.08 3.17-4.72zm-47.41 1.2 2.94 8.2-2.58 1.25-2.62-8.55zm-36.2.74-3.72 2.28 7.36 11.16-15.6 6.95c-6.21 13.17-13.58 25.33-27.05 32.3l-.08 17.04-.23.35.18 5.36 6.5-3.49c1.63 2.49 8.49 11.5 15.05 20.04 6.55 8.54 12.57 16.3 12.74 16.52l-.51.63-27.73-36.5s-4.38 2.16-5.67 2.88l.18 18.52-.75-.04.1 93.81 15.3-15.34-.19-63.65c3.25 3.07 6.02 6.34 9.74 9.35l6.36-.05c16.61-16.99 25.71-31.53 27.7-57.57 1.34-17.42-4.41-39.32-19.68-60.55m32.72.58 3.03 8.48-2.54.84-2.78-8.82zm-3.3.63c3.47 10.6 6.55 22.01 6.93 32.83.34 11.8.5 18.9-1.45 29.26-.1.54-2.2.06-2.2.06.26.09 1.18-11.71 1.1-19.12a116 116 0 0 0-8.02-42.06c1.05-.64 3.64-.97 3.64-.97m-29.75.15c12.06 16.1 20.68 37.93 19.24 59.47-1.38 25.05-10.82 39.48-27.41 56.83l-4.28.1c19.63-18.93 28.32-35.13 29-56.5.8-24.59-6.67-40.94-19.25-58.36zm-3.37 1.48-35.21 20.64.04 5.87 41.1-17.73zm100.97.58 26.63 35.12-6.59 4.92-25.38-33zm-39.87.87-4.48.22.15 4.54 4.67-.11zm19 1.53 7.97.13-3.08 5.14-7.7-.06zm-1.47.13c-3.67 6.85-8.72 14.67-11.56 27.3l-26.24.02a67 67 0 0 0-.85-8.65c11.31-4.16 20.07-10.38 26.5-18.6zm4.85.36-3.42 1.98 2.1 2.42 3.76-1.45zm-31.23 2.53-1.13 4.47 4.25 1.65.79-5.32zm42.67 2.49 25.2 32.85-2.36 1.88-24.63-32.11zm-18.2.85 7.64.04-3.22 6.47-7.57-.11zm2.9.52-3.45 2.89 2.6 3 3.17-2.55c.07-.05-2.32-3.34-2.32-3.34m-33.45.24-1.05 4.35 4.42 1.18.79-4.67zm-40.5 2.46c.21-.04-.7 5.1-2.04 6.02-.64.44-.97.34-1.53-.26-.38-.41-2.1-3.25-2.1-3.25l1.47-.75c1.8 2.89 1.8 1.49 2.47-.97zm3.32 2.55 2.35 4.05q-14.15 36.22-45.57 51.94l-.04-4.01c24.67-14.13 34.8-30.82 43.26-51.98m-10.23.4q.9.01 2.1 2.16c1.16 2.05 1.13 2.18-.78 2.78-3.44.9-4.72 1.13-3.66-1.15 1.14-2.46 1.59-3.78 2.34-3.78m91.57 1.07c4.4.12 9.01 4.94 8.55 8.91-.33 2.8.2 4.88.96 3.73 1.67-2.53 6.6-.85 6.56 2.2-.03 1.61-1.1 1.88-1.72.42-.9-2.16-3.47-2.21-3.85.05-.35 2.12 1.44 3.67 6.21 5.4 5.6 1.33 9.18 6.53 6.98 9.27-1.22 1.52-1.47.5-1.54-.77-.23-4.25-6.19-4.9-4.1-1.14.68 1.22.25 1.69-.97 1.07-1.94-.98-2.58-3.3-.7-4.37 2.23-.9 1.47-1.09-1.38-2.06-6.07-2.08-8.68-5.91-9-13.2.12-3.33-.33-4.51-1.89-4.97-1.42-.41-3.03 1.4-2 2.36.55.52 1 1 .7 1.28-.94.93-3.3-.57-3.28-2.18.02-1.05.41-1.26 1.98-2.5.43-.34.06-.98-.58-1-2.38.78-2.21-2.4-.93-2.5m-93.8.03c-6.04 14.47-14.3 27.1-30.8 37.76l-.06-3.84c18.53-11.23 26.54-32.27 26.54-32.28zm76.57.25 7.42.13-1.99 5.7-7.88-.05zm3.47.56-3.7 2.15 1.93 2.71 4.1-1.94zm-72.18 2.11a.78.78 0 0 1 0 1.56.77.77 0 0 1-.77-.78c0-.43.34-.78.77-.78m7.6.34c7.84 17.18 9.7 36.83 4.25 56.47l-21.15-27.66c8.12-9.19 13.57-19.7 16.9-28.81m-10.46 1.14c1.86-.06.95 4.99-1.47 6.71-.88.69-1.48.6-1.77-.77a11 11 0 0 0-1.83-3.41c-1.09-1.4-1.08-1.44.51-1.54 1.76.02 3.2-.82 4.56-.99m-18.13.12-18.87 7.97-.1 14.23c8.56-5.74 15.3-14.02 18.97-22.2m-1.55 1.57c-3.24 7.06-9.23 14.05-16.18 18.91l.04-12.07zm105.48.08 21.68 28.59-2.15 2.17-20.83-27.3zm-87.63.38c-1.38-.02-1.79.62-.97 1.5q1.02 1.13 1.7-.49.41-.99-.73-1.01m-4.85.58c.7.01 2.28 2.45 2.73 4.2.33 1.3-.02 1.57-2.47 1.93-1.01.28-3.75.01-3.53-.72.4-1.06 3.02-5.41 3.27-5.4m75.46.28 7.6.09-1.74 6.26-7.96-.11zm3.36.39-3.54 2.46 2.8 2.77 3.75-2.33zm11.92 2.7 21.08 27.5c-6.3 8.04-12.56 17.28-16.68 29.49-7.5-17.65-10.25-34.83-4.4-57m-85.58 2.33a.78.78 0 0 1 0 1.55.8.8 0 0 1-.77-.77c0-.43.34-.78.77-.78m-8.66.94q.47-.04 1.64.24c1.45.29 3.25-.06 4.6-.13 1.31.1.07 4.3-1.9 5.84-1.57 1.22-2.24.65-2.6-1.56-.13-.8-.97-2.16-1.7-3.24-.52-.75-.58-1.1-.04-1.15m76.66 1.14 7.97.05-1.23 9.52zm-77.9.29a1 1 0 0 1 .25.15c1.26 1.18 2.84 5.3 2.03 5.6-.95.35-5.23-.15-5.71-.64-.5-.44 1.1-2.29 2-3.59.4-.48.85-1.67 1.43-1.52m4.69.3c-1.22.03-1.3.2-.72 1.52.47 1.07.8 1.17 1.6.46 1.13-.98.65-2.04-.88-1.99m140.13.63.03 4.88c-30.63 15.28-42.1 51.36-42.27 51.36l-2.23-4.16c14.06-34.84 33-45.11 44.46-52.08zm-149.22 5.16c1.44.12 3.09.6 4.62.58 1.82-.04 2.36-.16 2.35.52.02 1.83-1.68 4.42-3.76 5.4-1.4.66-1.43.67-1.59-.98-.16-2.01-1.18-3.97-1.62-5.52m8.7.16a.77.77 0 0 1 0 1.55.77.77 0 0 1-.76-.78c0-.43.34-.77.77-.77m-9.75 1.07c1.6 1.39 1.82 3.88 1.76 5.78-2.89.8-5.31.06-6.17-.83-.16.13 3.7-4.51 4.4-4.95m3.62.54c-.72.05-.34.48.2 1.75q.55 1.32 1.44.4c.76-.82.87-1.47.38-1.82a5 5 0 0 0-2.02-.33m146.56.53.01 1.78c-2.25 1-2.03 1.93.05 2.44l.03 1.57c-1.2-.36-1.94-.87-3.3-1.32-.83-.28-1.32-.48-.59-1.37a14 14 0 0 1 3.8-3.1m-88.5 2.62h8.47v5.62h6.62l-.52 6.4h-6.1v5.62h-8.47v-5.62h-6.04l.49-6.4h5.55zm19.12.02c-4.29 21.36-.36 44.03 6.26 62.5l-3.34.37c-5.15-14.77-9.25-35.8-5.08-62.86 0 0 1.49-.03 2.16-.01m62.82.41c.42 0 .77.35.77.78s-.35.77-.77.77a.77.77 0 0 1-.77-.77c0-.43.34-.78.77-.78m-148.9 1.8c.29-.01 1.15.36 1.91.57 1.15.33 2.06.46 3.1.48 2.11.04 2.39.03 1.48 1.77-.65 1.25-2.12 2.9-3.15 3.4-1.45.79-2.01.68-1.92-.75 0-.98-.42-2.68-.96-3.89-.43-.94-.92-1.57-.45-1.59m151.32.58c.6-.01 1.62.35 2.55.8 2.47 1.22 2.4 1.5-.94 3.89-2.44 1.86-3.02 2.06-3.1-.86-.09-2.47.17-3.8 1.49-3.83m-142.41.1a.78.78 0 0 1 0 1.55.77.77 0 0 1-.77-.77c0-.43.34-.78.77-.78m139.6.37c.7.06.3 2.63.64 5.04.13 1.37.01 1.47-1.07.86a9 9 0 0 0-3.6-1.17c-1.25-.1-1.34-.62-.95-1.45 1.1-1.82 3.17-2.68 4.83-3.26zm-149.77.24c.98.01 2.07 5.15 1.19 5.61-1.38.71-5.63-.68-5.62-1.85 0-.38 4-3.77 4.43-3.76m3.85.57q-.34.01-.62.08c-.62.14 0 .95.3 1.65.4.9 1.03 1 1.7.22.94-1.09.74-1.59-.6-1.87a3 3 0 0 0-.78-.08m144.63 1.15q-.28.02-1.07.53c-.8.51-1.14.88.03 1.28 1.04.36 1.6.51 1.51-.39-.1-1-.12-1.45-.47-1.42m-79.43.73v5.6h6.73v-5.6zm73.42.49c.42 0 .76.34.76.77a.77.77 0 1 1-1.53 0c0-.43.34-.77.77-.77m14.44.74.05 3.59c-2.4 1.76-17.65 12.88-25.54 31.58l-4.13 1.77c5.81-16.1 18.25-29.89 29.62-36.94m-140.58.13 21.26 27.44-1.41 3.57-21.9-28.96zm-21.47 1.24c2.04.68 3.49 1.61 5.5 1.85.6.08.75.2.47.73-.9 1.75-2.63 3.57-4.44 4.17-1.3.43-1.91.27-1.7-.54.53-2.1.04-5.44.17-6.21m-1.28.47c.89.76.71 5.55-.27 6.58-.52.54-2.01.05-4.25-1.23-1.46-.83-1.74-1.34-1-1.85 1.23-.76 4.86-3.68 5.52-3.5m151.36.07q.22-.01.51.03.68 0 1.7.23c2.66.6 3.25 1.2 1 3-.84.68-1.73 1.5-1.99 1.82-1.21 1.5-2.06.41-2.32-2.3-.17-1.67.03-2.71 1.1-2.78m-2.8.29c.42 0 .7.23.69.76-.01.7.48 3.67.75 4.49.48 1.39.14 1.7-1.01 1.1a10 10 0 0 0-4.25-.7c-1.36.1-1.32-.26-.92-1.42.7-2.03 3.44-4.23 4.73-4.23m-145.43 1q-.39-.06-.52.15c-.17.3-.13.98.13 2.15q.14.77 1.37-.1c.98-.7.94-1.13-.16-1.8a2 2 0 0 0-.82-.4m5.82.17a.77.77 0 0 1 0 1.55.77.77 0 0 1-.77-.78c0-.43.34-.77.77-.77m138.63 1.05c-.8.14-1.95 1.46-1.54 1.96.37.36 1.73.35 1.97.13.36-.34.19-1.9-.11-2.08a1 1 0 0 0-.32-.01m-130.02 1.1s.63 2.61.9 3.82c.46 2.21 3.56 2.1 3.2-.22-.2-1.35-.24-1.32.43-1.3 3.2.17 2.65 5.24-1.04 4.85-.77.09-.88.4-.23.68.65.27 3.13.91 3.51.9 4.02 0 9.8 6.2 9.66 11.7-.09 3.6 1.12 6.2 2.37 6.5.98.23 2.41-.68 2.3-1.78-.18-1.52 1.05-1.05 1.76.05 1.08 1.5-.32 3.69-2.89 3.52-1.1.21.8.9 2.21 1.32 1.28.07.2 1.65-.04 1.94-.72.84-3.08.2-4.94-1.31-2.27-1.85-3.25-4.33-3.52-9.2-.17-3.12-.4-3.76-1.3-2.47-1.64 2.88-5.53 1.47-6.02-1.57-.27-1.6 1.14-2.77 1.6-1.31 1.2 3.03 4.16 2.3 3.68-.7-.32-2-2.3-3.09-6.2-4.2-4.7-1.33-6.1-2.94-7-6.81-.41-1.72-.35-2.61.55-3.51.45-.44 1.01-.9 1.01-.9m123.69 1.36a.77.77 0 0 1 0 1.55.77.77 0 0 1-.77-.78c0-.42.34-.77.77-.77m-147.35.74c1.4.5 2.6 1.26 4.04 1.75.94.32.68 1.07-.29 2.14a10 10 0 0 1-3.63 2.63l.01-2.17c1.82-.63 2.98-2.16-.08-2.65zm150.37 1.18q.26-.01.62.03c.53 0 1.28.02 2.16.2 2.22.47 2.49.66 1.15 2.24-.5.58-1.24 1.46-1.64 1.96-1.32 1.84-2.03 1.2-2.64-1.18-.67-2.17-.88-3.18.35-3.25m-2.5.59c.83 0 .6 1 .87 2.01.22.79.54 1.79.78 2.5 1.21 2.68.45 1.64-1.72 1.4-1.45-.15-3.77.1-4.35-.31-.25-.33-.01-1.2.45-2.16a8 8 0 0 1 2.75-3.06q.82-.4 1.23-.38m-140.88.32c.43 0 .77.35.77.78a.77.77 0 1 1-1.54 0c0-.43.34-.78.77-.78m11.6.74 24.29 32.28-1.9 2.73-24.98-33.2zm152.17.12c-12.62 9.17-17.46 20.3-18.45 21.76l18.5-7.18zm-24.1 1.05c-.69.2-1.68 1.48-1.25 1.99.25.26 1.27.3 1.76.12.75-.28.24-2.11-.5-2.11m22.76.84.19 12.05-15.83 6.64c5.3-9 10.5-14.57 15.64-18.69m-154.48.64 25.32 33.43-5.17 6.56-26.95-35.06zm46.26.39 6.34 8.3-7.75-.18zm80.15.68c.43 0 .77.34.77.77a.77.77 0 1 1-1.54 0c0-.43.35-.77.77-.77m3.93 1.96h.72c2.9.01 3.86.2 3.02 1.63-1.12 1.4-1.79 2.73-3.02 4.02-.7.73-1.59-.77-2.33-3.16-.6-1.93-.3-2.42.84-2.44q.44-.05.77-.05m-3.44 1.03c.42-.01.5.57.8 1.58.52 1.67 1.47 3.2 2.15 4.55.16.33-.43.42-1.18.1-1.67-.72-5.53.04-5.64-.33-.57-.82.3-3.08 1.92-4.64.8-.76 1.53-1.26 1.95-1.26m-134.63.99 27.42 35.8-.92 1.14c-.26-.34-6.14-7.92-12.65-16.39-6.53-8.5-13.38-17.52-14.98-19.94zm134.06 1.22c-.44-.24-1.69 1.62-1.34 2.18.36.58 1.56.27 1.96-.26.27-.52.15-1.51-.62-1.92m-5.3 3.66c.43 0 .77.35.77.77a.77.77 0 1 1-1.54 0c0-.42.35-.77.77-.77m-76.5.03 8.06.05-2.1 6.94-7.85-.15zm35.48.18 1.04 9.02a60.7 60.7 0 0 0-26.54 18.68c-1.41-.1-12.7.1-12.7.1.28.04 10.46-19.28 11.63-27.67zm-31.9.84-3.69 2.55 2.89 3.1 3.82-2.6zm76.99.06c.86.02 1.86.12 2.55.22 1.36.27 1.56.3 1.1 1.42-.61 1.5-2 4.2-2.34 4.42-1.25.78-3.8-4.8-3.08-5.76.17-.25.9-.32 1.77-.3m-3.66 1.7c.35-.04.83.66.97 1.26.17.73 1.43 2.57 2.22 3.45 1 1.11.94 1.27-.48 1.38-1.7.14-3.36.47-4.32.82-1.48.55-1.68.42-1.5-1.32.3-2.62 2.04-5.5 3.1-5.6m-.16 2.46c-.92.14-1.3 2.24-1.15 2.96.19.5 2.5-.42 2.62-1.03-.02-.28-.93-1.86-1.47-1.93m-78.85 2.6 7.61.08-2.5 6.3-7.52-.02zm3.4.85-3.64 2.32 2.84 2.76 3.5-2.42zm77.17 1.1q.94-.05 1.7.34c.41.67-1.23 4.4-1.23 4.4l-2.68 1.08c-.58-1.2-1.57-2.44-1.8-3.73-.1-.56.18-.77.8-1.12a9 9 0 0 1 3.21-.97m-6.95.35a.77.77 0 1 1-.77.78c0-.43.34-.78.77-.78m-34.7.1s1.36 7.78 1.67 8.35c-12.66 4.8-20.07 11.88-23.58 18.8l-23.81-.02 5.31-8.3 14.1-.07c6.81-8.32 15.22-14.95 26.3-18.75m-3.06 2.2-1.17 3.78 3.56 2.28 1.34-4.05zm38.77.35c.44-.04.94.31 1.46 1.3.45.81 1.04 1.99 1.04 1.99l-1.06.4c-.86-2.96-1.65-1.86-1.74.74-.72.33-.8.38-.98.5-.83-1.03-.05-4.79 1.28-4.93m-77.38 2.31 7.38.1-3.09 6.43-7.5-.21zm32.19.52-.59 4.77 3.98.85.54-4.54zm-29.06.05-3.64 2.38 2.4 3.16 3.5-2.37zm23.36 4.18-.76 4.4 3.73.85.85-4.42zm-81.03.26 9.33 9.3.51 64.9-9.28 9.36zm50.77 2.38c-.04.05 7.44.21 7.44.21l-3 5.43-2.55-.11 3.36-2.31-2.15-2.77-3.46 2.26 1.93 2.8-5.05-.1zm48.13 1.6 2.54 8.42-3.05.54-2.29-7.93c.93-.48 1.87-.72 2.8-1.03m-23.94.53.05 5.05 4.07.35.16-4.74zm20.22.8 2.32 8-1.93.56-2.77-7.6a8 8 0 0 1 2.38-.95m-3.53 1.66 2.98 7.83c-4.11 1.68-8.38 5.27-11.6 8.85-2.38-1.76-3.77-1.94-5.24-2.34 4.05-7.59 8.83-11.57 13.86-14.34m-44.96 1.96 7.83.24-5.44 8.17h-8.86zm23.3.3-.5 4.79 4.18 2.49.64-4.91zm-5.05.68-2.98 3.16 3.17 3.63 2.9-3.79zm-6.66.16-3.54 3.27 2.82 3.69 3.23-3.71zm-47.62.52 2.54 2.53.34 63.4-13 12.67-.1-3.41 10.34-10.86q0-32.17-.13-64.33m37.13.48-3.59 4.92 4.26.01 3.08-4.77zm-22.14 30.68c-1.42 5.12-7.94 10.68-8.06 10.58 3.23 4.66 3.12 11.3.27 14.57.02-.07 5.2 4.25 5.92 6.5.51 1.44.62 2.42 1.67 3.69 12.66-12.9 6.63-28.03.2-35.34m.19 1.34c12.29 15.33 4.19 29.36-.1 33.28l-.82-1.37c9.13-10.67 5.26-23.78-.06-29.98zm-1.33 2.98c.08.25.56.97.2.93l-.61-.13zm-.18 1.7q.37 0 .7.28c.25.42-1.02 3.94-1.8 3.12-.24-.47-.52-.87-.74-1.35-.25-.57-.09-.85.5-1.43q.75-.68 1.34-.63m1.85.97c.62.04 1.5 2 1.6 3.41.03.15-2.1-.33-2.68-.98.07-.58.6-2.04 1.08-2.43m-4.8 1.6c3.7 7.48 3.46 13.32.2 18.7l-2.55-2.2c2-3.96 2.72-8.38-.32-14zm2.44 1.88a6 6 0 0 1 1.8.31c2.49.76 2.57 2.43.18 3.62-.99.5-1.3.28-1.86-2.21-.28-1.24-.46-1.74-.12-1.72m-8.55 1.71 2 5.91-2 5.91h1.06l2-5.9-2-5.92h-.53zm13.38 1.15c.48 0 .7.9.76 2.47.05 1.48-.26 1.6-1.45.54-1.29-1.15-1.5-1.42-.33-2.36.35-.28.8-.65 1.02-.65m-3.37 2.45c.23-.02.92.42 1.59.93 1.69 1.3 1.31 2.19-.6 2.82-1.34.43-1.28.48-1.24-1.83.01-1.15-.05-1.9.25-1.92m27.74 1.53q-2.63.05-5.33.58c-2.07.53-2.93 2.38-2.25 4.05.31.76.79.77.23 1.23-.62.72-.95 2.39-.26 3 .8.46 1-.34.16 1.22l-15.57 28.76 93.44-.18-11.23-21.15c.02-.03.9-3.49-.9-3.9-.58-.14-.9-.68-1.02-1.2.14-1.47-.52-2.1-1.08-2.85a63 63 0 0 1-22.97-.81c-11.64-3.49-21.37-8.4-31.47-8.73q-.87-.03-1.75-.02m-.3.78c7.24-.04 15.38 2.11 21.02 4.65a61.4 61.4 0 0 0 33.77 5.13c.54-.08 1.1 0 1.51.43 1.03 1.15.33 1.87-2.25 2.11-14.36.61-26.46-2.25-35.27-6.26-8.24-3.11-15.8-4.15-21.79-3.24-3.28.5-3.77.59-3.75-.3.63-2.77 4.18-2.5 6.76-2.52m-23.4.55q.07.05.06.32c.01.9-.06 3.25-.38 4.14-.31.74-2.57-1.66-2.54-2.34.04-.3 1.87-1.5 2.59-1.98l.2-.13q.05-.03.08-.01zm-3.78 2.7c1.02.22 2.74 2.96 1.24 3.4-1.33.38-2.54.63-2.7-.27.2-1.2.8-3.28 1.46-3.13m29.93 1.12c11.61.04 19.59 6.45 30.49 8.51 6.63 1.16 15.33 1.85 21.02 1.4 3.27-.33 3.95-.23 3.93 1.14-.01.86.08.84-4.13.83-9.9.12-20.95-.63-29.3-3.93-9.33-2.79-17.94-8.18-30.8-4.56-.36-.01-.56-.56-.53-1.07q.01-.75.61-1.2c3.15-.8 6.03-1.13 8.7-1.12m-27.74 2.87c.56.01.38.84-.54 2.6-.77 1.5-1.08 1.5-1.52-.04-.47-1.65-.43-1.83.5-2.07.56-.13 1.02-.42 1.56-.49m-3.92.84c.66 0 1.59 3 1.1 3.56-.37.44-1.73.14-2.13-.39-.64-.84.18-3.18 1.03-3.17m29.36.8c2.6-.02 5.2.26 7.58.67-1.37.51-2.74.98-4.17 1.81q-1.46-1.28-3.41-2.48m-3.92.58.73.01c3.23.24 6.62 2.86 6.57 3.04 9.2-5.16 13.09 1.96 14.42 3.11 8.05-1.79 9.62-.9 14.11 3.97 8.06-3.96 11.97-.6 15.33 1.54 3.95-3.7 8.95-3.81 11.56-1.95.48.82 1.16 1.86 1.22 2.17.04.24-.33-.04-1.24-.7-4.73-3.4-12.58.84-10.48 5.33.56 1.21.47 1.73-.37 2.22-1.2.82-2.68-.54-1.84-1.92 1.4-2.31.34-4.24-3.05-6.03-4.79-2.52-12.6.3-11 4.01 1.03 1.19.08 2.02-1.28 1.98-1.54-.05-2.06-1.08-1.07-2.19 1.23-1.41.9-2.84-.53-4.48-4.3-6.15-13-3.71-11.84 1.68.5 1.34-.93 1.88-2.42 1.29-.95-.38-.81-1.86.23-2.38 1.2-.12 1.36-1.86 1.22-2.98-.2-1.62-2.6-3.22-4.95-4.07-1.71-.62-3.3-.75-4.55-.64-2.64.25-4.12 2.05-3.68 4.75.26 1.6-.19 3.25-2.05 2.38-1.02-.48-.76-1.64.28-2.71 3.66-3.6-3.71-7.97-8.16-4.95-.75.62-1.3.73-1.3.73.91-2.3 2.47-3.13 4.14-3.2m19.42 2.11 5.56 2.1c-1.28.26-2.18.62-3.1.98zm-19.28.53h.55c2.4.13 4.41 1.55 4.22 1.72-5.13-.97-5.41 4.79-2.07 5.73-4.6 6.35 7.44 8.82 5.24.98 6.1 1.1 5-5.88.45-5.81 1.07-2.6 9.44-.63 9.08 1.3-5.66.6-3.4 5.8-.95 5.8-5.92 5.64 5.93 10.83 5.61 2.33 4.76 1 5.32-5.34.75-5.76 1.67-2.36 7.65-.87 9.3 1.84-4.71.63-4.42 4.8-.73 5.47-4.67 5.99 6.84 8.2 5.65 1.24 4.12 1.42 6.39-4.11 1.04-5.7 5.48-3.27 11.42 1.62 10.78 1.71-6.25-.37-5 5.93-.48 5.59-2.88 6.54 8.52 6.9 5.63.12 5.13.1 4.68-5.88-.24-6.28 3.1-2.27 6.59-2.47 8.83-.35-4.68 1.24-2.73 6.7 1.97 5.2.44 4.57 4.13 3.6 4.22 3.46l3.3 6.2-89.65.15 7.66-14.2a3.64 3.64 0 0 0 4.16-4.25c3 2.16 6.24-3.21 1.84-4.75a5.4 5.4 0 0 1 3.84-1.74m-24.68.66c.33-.01.66.2.26.68-.19.2-.23.31-.54.03-.4-.45-.06-.7.28-.7zm18.8 3.06c.4.33.12 1.22-.2 1.52-.8.87-1.08.8-.37-.7.21-.45.41-.82.57-.82m39.28.4 4.66 1.14-2.22 1.25c-.81-.89-1.6-1.66-2.44-2.39m14.56 1.9 5.07.32c-.67.46-1.32.88-2.14 1.72-.64-.68-1.85-1.37-2.93-2.05m16.9 5.19c.27.6 1.4 2.65 1.29 2.7-1.64.29-2.08-2.16-1.3-2.7" style="fill:#100f08;stroke-width:1.06258" transform="translate(1833.0653 -793.68326)scale(.9375)"/><path d="M3693.82 50.25c-5.2-8.56-10.65-16.89-17.47-24 6.82-7.11 12.28-15.44 17.47-24 5.18 8.56 10.64 16.89 17.46 24-6.82 7.11-12.28 15.44-17.47 24m-42.44-10.72c-2.16-3.57-4.43-7.04-7.27-10 2.84-2.96 5.11-6.43 7.27-10 2.17 3.57 4.44 7.04 7.28 10-2.84 2.96-5.11 6.43-7.28 10m145.52 161.15c-5.19 8.57-10.65 16.9-17.47 24 6.82 7.11 12.28 15.44 17.47 24 5.18-8.56 10.64-16.89 17.46-24-6.82-7.1-12.28-15.43-17.46-24m42.44 10.72c-2.16 3.56-4.44 7.03-7.28 10 2.84 2.96 5.12 6.42 7.28 10 2.16-3.58 4.43-7.04 7.27-10-2.84-2.97-5.11-6.44-7.27-10" style="fill:#d40000;stroke-width:.99617"/><path d="M3652.17 12.76h3.32L3650.62.57l-3.73 5.15.03 7.04h2.61v3.63h-9.22v-3.63h3.04v-26.2h-3.04v-3.17h9.36v3.28h-2.59l-.05 12.77 8.17-12.87h-2.89v-3.18h9.96v3.18h-2.63l-6.72 10.52 6.58 15.67h2.92l.02 3.63h-10.24zm186.36 225.4h-3.32l4.88 12.19 3.72-5.15-.02-7.04h-2.62v-3.63h9.22v3.63h-3.04v26.2h3.04v3.17h-9.36v-3.28h2.59l.05-12.77-8.17 12.88h2.89v3.17h-9.96v-3.17h2.63l6.72-10.53-6.58-15.67h-2.92l-.02-3.63h10.24zm0 0" style="fill:#d40000;fill-opacity:1;stroke-width:.99617"/></g></svg>